<?xml version="1.0" encoding="UTF-8" standalone="no"?>
<!-- Created with Inkscape (http://www.inkscape.org/) -->

<svg
   width="14.842182mm"
   height="3.7416179mm"
   viewBox="0 0 14.842182 3.7416179"
   version="1.1"
   id="svg1"
   inkscape:version="1.3.2 (091e20ef0f, 2023-11-25, custom)"
   sodipodi:docname="logo.svg"
   xmlns:inkscape="http://www.inkscape.org/namespaces/inkscape"
   xmlns:sodipodi="http://sodipodi.sourceforge.net/DTD/sodipodi-0.dtd"
   xmlns="http://www.w3.org/2000/svg"
   xmlns:svg="http://www.w3.org/2000/svg">
  <sodipodi:namedview
     id="namedview1"
     pagecolor="#ffffff"
     bordercolor="#000000"
     borderopacity="0.25"
     inkscape:showpageshadow="2"
     inkscape:pageopacity="0.0"
     inkscape:pagecheckerboard="0"
     inkscape:deskcolor="#d1d1d1"
     inkscape:document-units="mm"
     inkscape:zoom="13.812212"
     inkscape:cx="27.258486"
     inkscape:cy="13.864542"
     inkscape:window-width="1844"
     inkscape:window-height="1051"
     inkscape:window-x="0"
     inkscape:window-y="0"
     inkscape:window-maximized="1"
     inkscape:current-layer="layer1" />
  <defs
     id="defs1" />
  <g
     inkscape:label="Layer 1"
     inkscape:groupmode="layer"
     id="layer1"
     transform="translate(-61.405552,-50.594533)">
    <g
       transform="matrix(5.0270833,0,0,5.0270833,-144.83054,-50.966756)"
       id="g6">
      <g
         transform="translate(41,20.925118)"
         id="g2">
        <path
           fill="#000000"
           stroke="none"
           paint-order="stroke fill markers"
           d="m 0.112,-0.595 q 0,-0.016 0.002,-0.024 -0.023,-0.027 -0.056,-0.031 -0.021,0 -0.021,-0.017 0.008,-0.017 0.033,-0.018 h 0.174 q 0.024,0 0.031,0.007 0.002,0.003 0.005,0.007 l 0.302,0.408 v -0.313 q 0,-0.052 -0.02,-0.065 Q 0.55,-0.648 0.527,-0.65 H 0.518 q -0.029,0 -0.029,-0.017 0.008,-0.017 0.034,-0.018 h 0.146 q 0.027,0 0.032,0.01 v 0.001 q 0.001,0.003 0.001,0.007 0,0.017 -0.023,0.017 -0.041,0.001 -0.05,0.024 -0.005,0.014 -0.005,0.047 v 0.565 Q 0.62,0.016 0.607,0.019 0.597,0.019 0.586,0.004 L 0.154,-0.567 v 0.458 q 0,0.052 0.021,0.065 0.013,0.008 0.042,0.009 0.03,0 0.03,0.017 Q 0.239,-0.001 0.214,0 H 0.059 Q 0.029,0 0.026,-0.012 0.025,-0.015 0.025,-0.018 q 0,-0.017 0.028,-0.017 0.045,-10e-4 0.054,-0.027 0.003,-0.009 0.004,-0.021 0.001,-0.01 0.001,-0.024 v -0.488 m 0.477,0.544 V -0.195 L 0.252,-0.65 H 0.133 q 0.004,0.004 0.021,0.024 z"
           id="path2" />
      </g>
      <g
         transform="translate(41.944222,20.925118)"
         id="g3">
        <path
           fill="#000000"
           stroke="none"
           paint-order="stroke fill markers"
           d="m 0.418,-0.25 0.199,0.2 q 0.013,0.013 0.013,0.021 0,0.017 -0.02,0.02 -0.009,0 -0.022,-0.013 l -0.2,-0.2 -0.2,0.2 q -0.013,0.013 -0.021,0.013 -0.015,0 -0.019,-0.015 -0.001,-0.003 -0.001,-0.005 0,-0.009 0.013,-0.022 L 0.359,-0.25 0.16,-0.45 q -0.013,-0.013 -0.013,-0.021 0,-0.015 0.016,-0.019 0.002,-0.001 0.004,-0.001 0.008,0 0.021,0.013 l 0.201,0.2 0.2,-0.2 q 0.013,-0.013 0.021,-0.013 0.016,0 0.019,0.015 0.001,0.003 0.001,0.005 0,0.008 -0.013,0.021 z"
           id="path3" />
      </g>
      <g
         transform="translate(42.944444,20.925118)"
         id="g4">
        <path
           fill="#000000"
           stroke="none"
           paint-order="stroke fill markers"
           d="m 0.656,-0.142 v 0 Q 0.639,-0.067 0.551,-0.015 0.489,0.022 0.436,0.022 0.391,0.022 0.285,-0.006 0.195,-0.033 0.133,-0.035 0.106,0.002 0.057,0.018 0.047,0.022 0.04,0.022 q -0.009,0 -0.009,-0.006 0,-0.013 0.036,-0.046 l 0.025,-0.034 q 0.046,-0.069 0.073,-0.176 0.051,-0.2 0.1,-0.286 0.02,-0.035 0.045,-0.065 0.053,-0.063 0.138,-0.096 0.045,-0.018 0.085,-0.018 0.071,0 0.084,0.069 v 0.001 q 0.002,0.012 0.002,0.024 0,0.043 -0.019,0.06 -0.002,0.001 -0.007,0.005 -0.04,0.03 -0.067,0.03 -0.008,0 -0.008,-0.007 L 0.522,-0.559 V -0.56 q 0,-0.058 -0.038,-0.076 -0.014,-0.007 -0.031,-0.007 -0.032,0 -0.047,0.015 l -0.001,0.001 -0.001,0.001 q -0.002,0.001 -0.005,0.005 -0.071,0.072 -0.137,0.333 -0.029,0.118 -0.082,0.195 0.015,-0.004 0.038,-0.004 0.053,0 0.162,0.032 0.089,0.025 0.135,0.025 0.016,0 0.022,-0.006 0.001,-0.002 0.004,-0.006 l 0.015,-0.03 q 0.007,-0.02 0.022,-0.032 h 0.001 q 0.005,-0.004 0.013,-0.009 0.032,-0.022 0.055,-0.022 0.006,0 0.009,0.003 z"
           id="path4" />
      </g>
      <g
         transform="matrix(0.7,0,0,0.7,43.634444,20.512226)"
         id="g5">
        <path
           fill="#000000"
           stroke="none"
           paint-order="stroke fill markers"
           d="m 0.045,0.122 v 0 l 0.112,-0.445 q 0.007,-0.03 0.007,-0.051 0,-0.046 -0.031,-0.046 -0.041,0 -0.067,0.095 -0.003,0.011 -0.006,0.024 -0.011,0.022 -0.017,0.023 -0.012,0 -0.012,-0.01 0,-0.016 0.018,-0.067 0.007,-0.018 0.013,-0.03 0.024,-0.049 0.06,-0.056 0.007,-0.001 0.014,-0.001 0.054,0 0.079,0.044 v 0.001 q 0.008,0.013 0.011,0.03 0.063,-0.075 0.131,-0.075 0.071,0 0.109,0.064 0.022,0.045 0.024,0.096 0,0.108 -0.076,0.2 Q 0.345,0.002 0.263,0.01 0.256,0.011 0.249,0.011 0.186,0.011 0.157,-0.053 0.12,0.079 0.109,0.141 0.108,0.146 0.108,0.147 q 0,0.011 0.013,0.014 h 0.001 v 0 q 0.012,0.002 0.036,0.002 0.022,0 0.024,0.011 0,0.02 -0.018,0.02 L 0.066,0.191 H 0.065 l -0.082,0.003 h -0.002 q -0.013,0 -0.013,-0.012 0.006,-0.018 0.023,-0.019 0.037,0 0.045,-0.013 L 0.037,0.149 Q 0.039,0.145 0.041,0.138 0.042,0.133 0.045,0.122 m 0.176,-0.434 v 0 l -0.049,0.196 q -0.003,0.012 -0.003,0.016 0,0.023 0.018,0.052 0.011,0.019 0.028,0.029 0.015,0.008 0.033,0.008 0.051,0 0.096,-0.064 0.013,-0.018 0.023,-0.039 0.027,-0.057 0.045,-0.154 0.006,-0.035 0.006,-0.058 0,-0.079 -0.048,-0.092 -0.008,-0.002 -0.016,-0.002 -0.038,0 -0.081,0.038 -0.043,0.036 -0.052,0.07 z"
           id="path5" />
      </g>
    </g>
  </g>
</svg>
